<svg width="13" height="17" viewBox="0 0 13 17" fill="none" xmlns="http://www.w3.org/2000/svg">
<path fill-rule="evenodd" clip-rule="evenodd" d="M6.33333 0.870117C2.83553 0.870117 0 3.70565 0 7.20345V10.5368C0 14.0346 2.83553 16.8701 6.33333 16.8701C9.83114 16.8701 12.6667 14.0346 12.6667 10.5368V7.20345C12.6667 3.70565 9.83114 0.870117 6.33333 0.870117ZM11.3333 10.5368V7.20345C11.3333 4.44203 9.09476 2.20345 6.33333 2.20345C3.57191 2.20345 1.33333 4.44203 1.33333 7.20345V10.5368C1.33333 10.7543 1.34723 10.9686 1.37417 11.1788C1.73329 8.78986 3.81681 6.95707 6.33335 6.95707C8.84985 6.95707 10.9333 8.78981 11.2925 11.1787C11.3194 10.9686 11.3333 10.7543 11.3333 10.5368ZM3.16674 13.7604C2.83986 13.2181 2.65279 12.5859 2.65279 11.9136C2.65279 9.92699 4.28613 8.29041 6.33335 8.29041C8.38057 8.29041 10.0139 9.92699 10.0139 11.9136C10.0139 12.5859 9.82682 13.2182 9.49993 13.7605C9.49998 13.7535 9.5 13.7466 9.5 13.7397C9.5 12.0108 8.08224 10.6093 6.33333 10.6093C4.58443 10.6093 3.16667 12.0108 3.16667 13.7397C3.16667 13.7466 3.16669 13.7535 3.16674 13.7604ZM6.33034 15.5368C5.30474 15.5352 4.5 14.7168 4.5 13.7397C4.5 12.7616 5.3063 11.9426 6.33333 11.9426C7.36036 11.9426 8.16667 12.7616 8.16667 13.7397C8.16667 14.7178 7.36036 15.5368 6.33333 15.5368L6.33034 15.5368Z" fill="#404040"/>
</svg>
